# xmcd CD database file
#
# Track frame offsets:
#	150
#	31782
#	55158
#	76376
#	107374
#	145255
#	164926
#	182354
#	198159
#	209461
#	226047
#
# Disc length: 3068 seconds
#
# Revision: 0
# Processed by: cddbd v1.5.2PL0 Copyright (c) Steve Scherf et al.
# Submitted via: CDex 1.70
#
DISCID=880bfa0b
DTITLE=Duke Ellington - Contrapuntat Riposte
DYEAR=1968
DGENRE=Jazz
TTITLE0=Satin Doll
TTITLE1=Take the A Train
TTITLE2=Body and Soul
TTITLE3=Mood Indigo
TTITLE4=Contrapuntal Riposte
TTITLE5=Passion Flower
TTITLE6=Me and You
TTITLE7=I'm Beginning to See the Light
TTITLE8=It Don't Mean a Thing
TTITLE9=Acht O'Clock Rock
TTITLE10=Satin Doll (ending theme)
EXTD=YEAR: 1968
EXTT0=
EXTT1=
EXTT2=
EXTT3=
EXTT4=
EXTT5=
EXTT6=
EXTT7=
EXTT8=
EXTT9=
EXTT10=
PLAYORDER=
